<mxfile host="app.diagrams.net" modified="2024-03-07T03:40:05.796Z" agent="Mozilla/5.0 (Macintosh; Intel Mac OS X 10_15_7) AppleWebKit/605.1.15 (KHTML, like Gecko) Version/16.4 Safari/605.1.15" version="24.0.0" etag="fewskzMjIwoZ_rxMROK7" type="github">
  <diagram name="第 1 页" id="rq_cnkrnIXvrHYzvFi6w">
    <mxGraphModel>
      <root>
        <mxCell id="0" />
        <mxCell id="1" parent="0" />
      </root>
    </mxGraphModel>
  </diagram>
</mxfile>
